solid ascii
  facet normal 0.000000e+000 -1.000000e+000 0.000000e+000
    outer loop
      vertex   -7.920000e+001 -9.500000e+000 0.000000e+000
      vertex   -6.700000e+001 -9.500000e+000 0.000000e+000
      vertex   -7.920000e+001 -9.500000e+000 4.000000e-001
    endloop
  endfacet
  facet normal 0.000000e+000 -1.000000e+000 0.000000e+000
    outer loop
      vertex   -7.920000e+001 -9.500000e+000 4.000000e-001
      vertex   -6.700000e+001 -9.500000e+000 0.000000e+000
      vertex   -6.700000e+001 -9.500000e+000 4.000000e-001
    endloop
  endfacet
  facet normal -1.000000e+000 0.000000e+000 0.000000e+000
    outer loop
      vertex   -7.920000e+001 4.500000e+001 0.000000e+000
      vertex   -7.920000e+001 -9.500000e+000 0.000000e+000
      vertex   -7.920000e+001 4.500000e+001 4.000000e-001
    endloop
  endfacet
  facet normal -1.000000e+000 -0.000000e+000 0.000000e+000
    outer loop
      vertex   -7.920000e+001 4.500000e+001 4.000000e-001
      vertex   -7.920000e+001 -9.500000e+000 0.000000e+000
      vertex   -7.920000e+001 -9.500000e+000 4.000000e-001
    endloop
  endfacet
  facet normal 0.000000e+000 1.000000e+000 -0.000000e+000
    outer loop
      vertex   -6.700000e+001 4.500000e+001 0.000000e+000
      vertex   -7.920000e+001 4.500000e+001 0.000000e+000
      vertex   -6.700000e+001 4.500000e+001 4.000000e-001
    endloop
  endfacet
  facet normal 0.000000e+000 1.000000e+000 -0.000000e+000
    outer loop
      vertex   -6.700000e+001 4.500000e+001 4.000000e-001
      vertex   -7.920000e+001 4.500000e+001 0.000000e+000
      vertex   -7.920000e+001 4.500000e+001 4.000000e-001
    endloop
  endfacet
  facet normal 1.000000e+000 0.000000e+000 -0.000000e+000
    outer loop
      vertex   -6.700000e+001 -9.500000e+000 0.000000e+000
      vertex   -6.700000e+001 4.500000e+001 0.000000e+000
      vertex   -6.700000e+001 -9.500000e+000 4.000000e-001
    endloop
  endfacet
  facet normal 1.000000e+000 -0.000000e+000 0.000000e+000
    outer loop
      vertex   -6.700000e+001 -9.500000e+000 4.000000e-001
      vertex   -6.700000e+001 4.500000e+001 0.000000e+000
      vertex   -6.700000e+001 4.500000e+001 4.000000e-001
    endloop
  endfacet
  facet normal 0.000000e+000 0.000000e+000 1.000000e+000
    outer loop
      vertex   -6.700000e+001 4.500000e+001 4.000000e-001
      vertex   -7.920000e+001 4.500000e+001 4.000000e-001
      vertex   -6.700000e+001 -9.500000e+000 4.000000e-001
    endloop
  endfacet
  facet normal 0.000000e+000 0.000000e+000 1.000000e+000
    outer loop
      vertex   -6.700000e+001 -9.500000e+000 4.000000e-001
      vertex   -7.920000e+001 4.500000e+001 4.000000e-001
      vertex   -7.920000e+001 -9.500000e+000 4.000000e-001
    endloop
  endfacet
  facet normal 0.000000e+000 0.000000e+000 -1.000000e+000
    outer loop
      vertex   -6.700000e+001 -9.500000e+000 0.000000e+000
      vertex   -7.920000e+001 -9.500000e+000 0.000000e+000
      vertex   -6.700000e+001 4.500000e+001 0.000000e+000
    endloop
  endfacet
  facet normal -0.000000e+000 0.000000e+000 -1.000000e+000
    outer loop
      vertex   -6.700000e+001 4.500000e+001 0.000000e+000
      vertex   -7.920000e+001 -9.500000e+000 0.000000e+000
      vertex   -7.920000e+001 4.500000e+001 0.000000e+000
    endloop
  endfacet
endsolid
